<svg width="50" height="50" viewBox="0 0 50 50" fill="none" xmlns="http://www.w3.org/2000/svg">
<circle cx="25" cy="25" r="25" fill="#F9FAFE"/>
<path d="M25 16.25C23.1773 16.2522 21.4299 16.9772 20.141 18.266C18.8522 19.5549 18.1272 21.3023 18.125 23.125C18.1228 24.6145 18.6094 26.0636 19.51 27.25C19.51 27.25 19.6975 27.4969 19.7281 27.5325L25 33.75L30.2744 27.5294C30.3019 27.4963 30.49 27.25 30.49 27.25L30.4906 27.2481C31.3908 26.0623 31.8771 24.6138 31.875 23.125C31.8729 21.3023 31.1478 19.5549 29.859 18.266C28.5701 16.9772 26.8227 16.2522 25 16.25ZM25 25.625C24.5056 25.625 24.0222 25.4784 23.6111 25.2037C23.2 24.929 22.8795 24.5385 22.6903 24.0817C22.5011 23.6249 22.4516 23.1222 22.548 22.6373C22.6445 22.1523 22.8826 21.7069 23.2322 21.3572C23.5819 21.0076 24.0273 20.7695 24.5123 20.673C24.9972 20.5766 25.4999 20.6261 25.9567 20.8153C26.4135 21.0045 26.804 21.325 27.0787 21.7361C27.3534 22.1472 27.5 22.6305 27.5 23.125C27.4992 23.7878 27.2355 24.4232 26.7669 24.8919C26.2982 25.3605 25.6628 25.6242 25 25.625Z" fill="#2770F1"/>
</svg>
