<svg width="60" height="60" viewBox="0 0 60 60" fill="none" xmlns="http://www.w3.org/2000/svg">
<path d="M60 30C60 13.4315 46.5685 0 30 0C13.4315 0 -3.8147e-06 13.4315 -3.8147e-06 30C-3.8147e-06 46.5685 13.4315 60 30 60C46.5685 60 60 46.5685 60 30Z" fill="#EFF0F8"/>
<g clip-path="url(#clip0_21_373)">
<path d="M27.207 27.207C26.7303 27.207 26.3438 26.8205 26.3438 26.3437C26.3438 25.867 26.7303 25.4804 27.207 25.4804C27.6838 25.4804 28.0703 25.867 28.0703 26.3437C28.0703 26.8205 27.6838 27.207 27.207 27.207Z" fill="#A7B5D1"/>
<path d="M22.332 34.5195C21.8553 34.5195 21.4688 34.133 21.4688 33.6562C21.4688 33.1795 21.8553 32.7929 22.332 32.7929C22.8088 32.7929 23.1953 33.1795 23.1953 33.6562C23.1953 34.133 22.8088 34.5195 22.332 34.5195Z" fill="#A7B5D1"/>
<path d="M17.7616 17H32.0396C32.4602 17 32.8013 17.341 32.8013 17.7617V43H17.7616C17.3409 43 16.9999 42.6589 16.9999 42.2383V17.7617C16.9999 17.341 17.3409 17 17.7616 17ZM26.4452 28.6051V38.5312C26.4452 38.9519 26.7862 39.2929 27.2069 39.2929C27.6276 39.2929 27.9686 38.9519 27.9686 38.5312V28.6051C28.9121 28.2864 29.5936 27.3935 29.5936 26.3437C29.5936 25.294 28.9121 24.401 27.9686 24.0824V21.4687C27.9686 21.0481 27.6276 20.707 27.2069 20.707C26.7862 20.707 26.4452 21.0481 26.4452 21.4687V24.0824C25.5017 24.401 24.8202 25.294 24.8202 26.3437C24.8202 27.3935 25.5017 28.2864 26.4452 28.6051ZM21.5702 35.9176V38.5312C21.5702 38.9519 21.9112 39.2929 22.3319 39.2929C22.7526 39.2929 23.0936 38.9519 23.0936 38.5312V35.9176C24.0371 35.5989 24.7186 34.706 24.7186 33.6562C24.7186 32.6065 24.0371 31.7135 23.0936 31.3949V21.4687C23.0936 21.0481 22.7526 20.707 22.3319 20.707C21.9112 20.707 21.5702 21.0481 21.5702 21.4687V31.3949C20.6267 31.7135 19.9452 32.6065 19.9452 33.6562C19.9452 34.706 20.6267 35.5989 21.5702 35.9176Z" fill="#A7B5D1"/>
<path d="M36.8451 26.5882V27.884C36.9298 27.9172 37.0137 27.9521 37.0969 27.9886L38.0135 27.072C38.2696 26.8159 38.6706 26.7756 38.9725 26.9755C39.5055 27.3282 40.0056 27.737 40.4593 28.1906C40.9134 28.6448 41.3222 29.145 41.6744 29.6774C41.8741 29.9794 41.8337 30.3802 41.5777 30.6362L40.6612 31.5527C40.6977 31.6361 40.7326 31.72 40.7658 31.8047H42.0616C42.4236 31.8047 42.7357 32.0596 42.8079 32.4144C42.9354 33.0399 43 33.6827 43 34.3249C43 34.9671 42.9354 35.6099 42.8079 36.2355C42.7357 36.5902 42.4236 36.8451 42.0616 36.8451H40.7658C40.7326 36.9298 40.6977 37.0139 40.6612 37.0971L41.5775 38.0135C41.8335 38.2695 41.874 38.6703 41.6743 38.9723C41.3221 39.5047 40.9132 40.005 40.459 40.4592C40.005 40.9132 39.5048 41.322 38.9723 41.6742C38.6703 41.874 38.2694 41.8336 38.0134 41.5776L37.097 40.6613C37.0138 40.6978 36.9298 40.7327 36.8451 40.7659V42.0615C36.8451 42.4236 36.5901 42.7356 36.2353 42.8079C35.6092 42.9354 34.9664 43 34.3248 43V36.201C35.3594 36.201 36.2009 35.3594 36.2009 34.3249C36.2009 33.2904 35.3593 32.4488 34.3248 32.4488V25.6516C34.9675 25.6516 35.6098 25.7142 36.2354 25.8418C36.5902 25.9141 36.8451 26.2261 36.8451 26.5882Z" fill="#A7B5D1"/>
</g>
<defs>
<clipPath id="clip0_21_373">
<rect width="26" height="26" fill="white" transform="translate(17 17)"/>
</clipPath>
</defs>
</svg>
