<svg width="26" height="26" viewBox="0 0 26 26" fill="none" xmlns="http://www.w3.org/2000/svg">
<path d="M2.37895 17.5759C2.06926 17.5759 1.81995 17.8252 1.81995 18.1349V22.6069C1.81995 22.9166 2.06926 23.1659 2.37895 23.1659H23.6209C23.9306 23.1659 24.1799 22.9166 24.1799 22.6069V18.1349C24.1799 17.8252 23.9306 17.5759 23.6209 17.5759H2.37895ZM4.61495 19.5324C5.07803 19.5324 5.45345 19.9079 5.45345 20.3709C5.45345 20.834 5.07803 21.2094 4.61495 21.2094C4.15186 21.2094 3.77645 20.834 3.77645 20.3709C3.77645 19.9079 4.15186 19.5324 4.61495 19.5324ZM7.96895 19.5324C8.43203 19.5324 8.80745 19.9079 8.80745 20.3709C8.80745 20.834 8.43203 21.2094 7.96895 21.2094C7.50586 21.2094 7.13045 20.834 7.13045 20.3709C7.13045 19.9079 7.50586 19.5324 7.96895 19.5324ZM11.3229 19.5324C11.786 19.5324 12.1614 19.9079 12.1614 20.3709C12.1614 20.834 11.786 21.2094 11.3229 21.2094C10.8599 21.2094 10.4844 20.834 10.4844 20.3709C10.4844 19.9079 10.8599 19.5324 11.3229 19.5324Z" fill="#A7B5D1"/>
<path d="M2.37895 10.205C2.06926 10.205 1.81995 10.4543 1.81995 10.764V15.236C1.81995 15.5456 2.06926 15.795 2.37895 15.795H23.6209C23.9306 15.795 24.1799 15.5456 24.1799 15.236V10.764C24.1799 10.4543 23.9306 10.205 23.6209 10.205H2.37895ZM4.61495 12.1615C5.07803 12.1615 5.45345 12.5369 5.45345 13C5.45345 13.4631 5.07803 13.8385 4.61495 13.8385C4.15186 13.8385 3.77645 13.4631 3.77645 13C3.77645 12.5369 4.15186 12.1615 4.61495 12.1615ZM7.96895 12.1615C8.43203 12.1615 8.80745 12.5369 8.80745 13C8.80745 13.4631 8.43203 13.8385 7.96895 13.8385C7.50586 13.8385 7.13045 13.4631 7.13045 13C7.13045 12.5369 7.50586 12.1615 7.96895 12.1615ZM11.3229 12.1615C11.786 12.1615 12.1614 12.5369 12.1614 13C12.1614 13.4631 11.786 13.8385 11.3229 13.8385C10.8599 13.8385 10.4844 13.4631 10.4844 13C10.4844 12.5369 10.8599 12.1615 11.3229 12.1615Z" fill="#A7B5D1"/>
<path d="M2.37895 2.83398C2.06926 2.83398 1.81995 3.0833 1.81995 3.39298V7.86498C1.81995 8.17467 2.06926 8.42398 2.37895 8.42398H23.6209C23.9306 8.42398 24.1799 8.17467 24.1799 7.86498V3.39298C24.1799 3.0833 23.9306 2.83398 23.6209 2.83398H2.37895ZM4.61495 4.79048C5.07803 4.79048 5.45345 5.16591 5.45345 5.62898C5.45345 6.09209 5.07803 6.46748 4.61495 6.46748C4.15186 6.46748 3.77645 6.09209 3.77645 5.62898C3.77645 5.16591 4.15186 4.79048 4.61495 4.79048ZM7.96895 4.79048C8.43203 4.79048 8.80745 5.16591 8.80745 5.62898C8.80745 6.09209 8.43203 6.46748 7.96895 6.46748C7.50586 6.46748 7.13045 6.09209 7.13045 5.62898C7.13045 5.16591 7.50586 4.79048 7.96895 4.79048ZM11.3229 4.79048C11.786 4.79048 12.1614 5.16591 12.1614 5.62898C12.1614 6.09209 11.786 6.46748 11.3229 6.46748C10.8599 6.46748 10.4844 6.09209 10.4844 5.62898C10.4844 5.16591 10.8599 4.79048 11.3229 4.79048Z" fill="#A7B5D1"/>
</svg>
