<svg width="252" height="44" viewBox="0 0 252 44" fill="none" xmlns="http://www.w3.org/2000/svg">
<path fill-rule="evenodd" clip-rule="evenodd" d="M10.0557 42.5893C14.8558 43.9286 22.2974 35.8034 26.6772 24.4411C31.0569 13.0786 30.7162 2.7816 25.9162 1.44208C22.1057 0.378716 16.6306 5.27988 12.344 13.0302C16.0487 6.57086 20.605 2.5403 23.7757 3.42513C27.9174 4.58091 28.1264 13.6859 24.2427 23.7616C20.3589 33.8374 13.853 41.0684 9.71133 39.9127C6.54054 39.0278 5.67471 33.4838 7.18575 26.412C5.24498 34.8173 6.24518 41.5259 10.0557 42.5893Z" fill="url(#paint0_linear_21_611)"/>
<path fill-rule="evenodd" clip-rule="evenodd" d="M21.8268 13.6997H7.18163V17.355H12.7302V31.7724L16.4122 24.4573V17.355H19.987L21.8268 13.6997ZM1.53003 31.9634H5.22482V13.6997H1.53003V31.9634Z" fill="url(#paint1_linear_21_611)"/>
<path d="M34.3592 24.895C35.6065 24.895 36.6176 23.932 36.6176 22.7441C36.6176 21.5562 35.6065 20.5933 34.3592 20.5933C33.112 20.5933 32.1008 21.5562 32.1008 22.7441C32.1008 23.932 33.112 24.895 34.3592 24.895Z" fill="white"/>
<path d="M47.0495 30.4602H43.7068V16.991H38.6692V13.6208H52.0751V16.991H47.0495V30.4602Z" fill="white"/>
<path d="M57.2061 16.991V23.7315H60.5604C61.0203 23.7315 61.4525 23.6454 61.8577 23.4732C62.2629 23.2931 62.6174 23.0504 62.9214 22.7451C63.2254 22.4398 63.463 22.0836 63.6343 21.6765C63.8135 21.2616 63.9031 20.8232 63.9031 20.3613C63.9031 19.8994 63.8135 19.4649 63.6343 19.0578C63.463 18.6429 63.2254 18.2828 62.9214 17.9775C62.6174 17.6721 62.2629 17.4334 61.8577 17.2611C61.4525 17.0811 61.0203 16.991 60.5604 16.991H57.2061ZM57.2061 30.4602H53.8518V13.6208H60.5604C61.1759 13.6208 61.7681 13.703 62.3371 13.8674C62.9057 14.024 63.4357 14.2511 63.9263 14.5485C64.4252 14.8382 64.8772 15.1905 65.2824 15.6054C65.6951 16.0125 66.0459 16.4665 66.3342 16.9676C66.6303 17.4686 66.8563 18.0049 67.0119 18.5764C67.1757 19.1479 67.2574 19.7428 67.2574 20.3613C67.2574 20.9406 67.1835 21.5042 67.0355 22.0522C66.8953 22.6003 66.6888 23.1209 66.4159 23.6141C66.1509 24.1073 65.8237 24.5613 65.4342 24.9763C65.0448 25.3912 64.6081 25.7513 64.1253 26.0566L65.9834 30.4602H62.4188L60.9577 27.0665L57.2061 27.09V30.4602Z" fill="white"/>
<path d="M79.3308 23.7315V20.3613C79.3308 19.8994 79.2412 19.4649 79.0621 19.0578C78.8908 18.6429 78.6531 18.2828 78.3491 17.9775C78.0452 17.6721 77.6868 17.4334 77.2738 17.2611C76.8686 17.0811 76.4364 16.991 75.9765 16.991C75.517 16.991 75.0803 17.0811 74.6676 17.2611C74.2624 17.4334 73.9079 17.6721 73.6039 17.9775C73.2999 18.2828 73.0585 18.6429 72.8793 19.0578C72.7077 19.4649 72.6222 19.8994 72.6222 20.3613V23.7315H79.3308ZM82.6851 30.4602H79.3308V27.09H72.6222V30.4602H69.2795V20.3613C69.2795 19.4297 69.4549 18.5568 69.8054 17.7426C70.1559 16.9206 70.6312 16.2043 71.2313 15.5937C71.8392 14.983 72.548 14.5015 73.3584 14.1493C74.1766 13.797 75.0492 13.6208 75.9765 13.6208C76.9038 13.6208 77.7727 13.797 78.583 14.1493C79.4009 14.5015 80.1138 14.983 80.7218 15.5937C81.3294 16.2043 81.8088 16.9206 82.1592 17.7426C82.5101 18.5568 82.6851 19.4297 82.6851 20.3613V30.4602Z" fill="white"/>
<path d="M99.0013 30.4602H95.4134L88.95 19.3749V30.4602H85.5957V13.6208H89.1839L95.647 24.7179V13.6208H99.0013V30.4602Z" fill="white"/>
<path d="M101.14 18.6703C101.14 17.9735 101.272 17.3198 101.537 16.7092C101.802 16.0986 102.161 15.5662 102.613 15.1122C103.072 14.6503 103.606 14.2863 104.214 14.0201C104.822 13.7539 105.472 13.6208 106.166 13.6208H113.856V16.991H106.166C105.932 16.991 105.714 17.0341 105.511 17.1202C105.309 17.2064 105.129 17.3277 104.973 17.4842C104.825 17.633 104.709 17.8091 104.623 18.0127C104.537 18.2162 104.494 18.4355 104.494 18.6703C104.494 18.9052 104.537 19.1283 104.623 19.3396C104.709 19.5432 104.825 19.7232 104.973 19.8798C105.129 20.0286 105.309 20.146 105.511 20.2321C105.714 20.3182 105.932 20.3613 106.166 20.3613H109.52C110.214 20.3613 110.864 20.4944 111.472 20.7606C112.088 21.0189 112.621 21.379 113.073 21.8409C113.533 22.2949 113.891 22.8312 114.148 23.4497C114.413 24.0603 114.546 24.714 114.546 25.4108C114.546 26.1075 114.413 26.7612 114.148 27.3718C113.891 27.9825 113.533 28.5187 113.073 28.9806C112.621 29.4347 112.088 29.7948 111.472 30.061C110.864 30.3271 110.214 30.4602 109.52 30.4602H102.075V27.09H109.52C109.754 27.09 109.972 27.0469 110.175 26.9608C110.377 26.8747 110.553 26.7573 110.701 26.6085C110.856 26.452 110.977 26.2719 111.063 26.0683C111.149 25.8648 111.191 25.6456 111.191 25.4108C111.191 25.1759 111.149 24.9567 111.063 24.7531C110.977 24.5496 110.856 24.3735 110.701 24.2247C110.553 24.0681 110.377 23.9468 110.175 23.8607C109.972 23.7746 109.754 23.7315 109.52 23.7315H106.166C105.472 23.7315 104.822 23.5984 104.214 23.3323C103.606 23.0661 103.072 22.7059 102.613 22.2519C102.161 21.79 101.802 21.2537 101.537 20.6431C101.272 20.0247 101.14 19.367 101.14 18.6703Z" fill="white"/>
<path d="M120.109 30.4602H116.755V13.6208H128.489V16.991H120.109V20.3613H125.135V23.7315H120.109V30.4602Z" fill="white"/>
<path d="M146.266 22.1109C146.266 22.9094 146.161 23.6806 145.951 24.4243C145.748 25.1602 145.46 25.853 145.086 26.5028C144.712 27.1447 144.26 27.7319 143.73 28.2642C143.2 28.7966 142.616 29.2545 141.977 29.6382C141.338 30.0139 140.648 30.3036 139.908 30.5071C139.168 30.7185 138.401 30.8242 137.606 30.8242C136.811 30.8242 136.043 30.7185 135.303 30.5071C134.571 30.3036 133.881 30.0139 133.234 29.6382C132.596 29.2545 132.011 28.7966 131.481 28.2642C130.951 27.7319 130.496 27.1447 130.114 26.5028C129.74 25.853 129.448 25.1602 129.237 24.4243C129.035 23.6806 128.933 22.9094 128.933 22.1109C128.933 21.3124 129.035 20.5413 129.237 19.7976C129.448 19.0538 129.74 18.361 130.114 17.7191C130.496 17.0771 130.951 16.49 131.481 15.9576C132.011 15.4253 132.596 14.9712 133.234 14.5955C133.881 14.2197 134.571 13.93 135.303 13.7265C136.043 13.5151 136.811 13.4094 137.606 13.4094C138.401 13.4094 139.168 13.5151 139.908 13.7265C140.648 13.93 141.338 14.2197 141.977 14.5955C142.616 14.9712 143.2 15.4253 143.73 15.9576C144.26 16.49 144.712 17.0771 145.086 17.7191C145.46 18.361 145.748 19.0538 145.951 19.7976C146.161 20.5413 146.266 21.3124 146.266 22.1109ZM142.935 22.1109C142.935 21.3751 142.795 20.6822 142.515 20.0324C142.234 19.3748 141.852 18.8072 141.369 18.3297C140.894 17.8443 140.329 17.4607 139.675 17.1789C139.028 16.8971 138.338 16.7562 137.606 16.7562C136.866 16.7562 136.172 16.8971 135.525 17.1789C134.879 17.4607 134.314 17.8443 133.831 18.3297C133.348 18.8072 132.966 19.3748 132.685 20.0324C132.405 20.6822 132.264 21.3751 132.264 22.1109C132.264 22.8468 132.405 23.5396 132.685 24.1894C132.966 24.8314 133.348 25.395 133.831 25.8804C134.314 26.3658 134.879 26.7494 135.525 27.0312C136.172 27.3131 136.866 27.454 137.606 27.454C138.338 27.454 139.028 27.3131 139.675 27.0312C140.329 26.7494 140.894 26.3658 141.369 25.8804C141.852 25.395 142.234 24.8314 142.515 24.1894C142.795 23.5396 142.935 22.8468 142.935 22.1109Z" fill="white"/>
<path d="M151.83 16.991V23.7315H155.184C155.644 23.7315 156.076 23.6454 156.481 23.4732C156.887 23.2931 157.241 23.0504 157.545 22.7451C157.849 22.4398 158.087 22.0836 158.258 21.6765C158.437 21.2616 158.527 20.8232 158.527 20.3613C158.527 19.8994 158.437 19.4649 158.258 19.0578C158.087 18.6429 157.849 18.2828 157.545 17.9775C157.241 17.6721 156.887 17.4334 156.481 17.2611C156.076 17.0811 155.644 16.991 155.184 16.991H151.83ZM151.83 30.4602H148.476V13.6208H155.184C155.8 13.6208 156.392 13.703 156.961 13.8674C157.529 14.024 158.059 14.2511 158.55 14.5485C159.049 14.8382 159.501 15.1905 159.906 15.6054C160.319 16.0125 160.67 16.4665 160.958 16.9676C161.254 17.4686 161.48 18.0049 161.636 18.5764C161.799 19.1479 161.881 19.7428 161.881 20.3613C161.881 20.9406 161.807 21.5042 161.659 22.0522C161.519 22.6003 161.313 23.1209 161.04 23.6141C160.775 24.1073 160.447 24.5613 160.058 24.9763C159.668 25.3912 159.232 25.7513 158.749 26.0566L160.607 30.4602H157.043L155.582 27.0665L151.83 27.09V30.4602Z" fill="white"/>
<path d="M180.722 30.4602H177.379V18.4355C177.379 18.2006 177.332 17.9814 177.239 17.7778C177.153 17.5743 177.032 17.3982 176.877 17.2494C176.729 17.0928 176.553 16.9715 176.351 16.8854C176.148 16.7993 175.93 16.7562 175.696 16.7562C175.462 16.7562 175.244 16.7993 175.042 16.8854C174.839 16.9715 174.66 17.0928 174.504 17.2494C174.356 17.3982 174.239 17.5743 174.153 17.7778C174.068 17.9814 174.025 18.2006 174.025 18.4355V30.4602H170.67V18.4355C170.67 18.2006 170.628 17.9814 170.542 17.7778C170.456 17.5743 170.335 17.3982 170.179 17.2494C170.031 17.0928 169.856 16.9715 169.653 16.8854C169.451 16.7993 169.233 16.7562 168.999 16.7562C168.765 16.7562 168.547 16.7993 168.345 16.8854C168.142 16.9715 167.963 17.0928 167.807 17.2494C167.659 17.3982 167.542 17.5743 167.456 17.7778C167.37 17.9814 167.328 18.2006 167.328 18.4355V30.4602H163.973V18.4355C163.973 17.7387 164.102 17.085 164.359 16.4744C164.624 15.8559 164.982 15.3197 165.434 14.8656C165.894 14.4037 166.428 14.0436 167.036 13.7853C167.651 13.5191 168.306 13.386 168.999 13.386C169.622 13.386 170.222 13.4995 170.799 13.7265C171.375 13.9457 171.894 14.2667 172.353 14.6894C172.813 14.2667 173.327 13.9457 173.896 13.7265C174.473 13.4995 175.073 13.386 175.696 13.386C176.389 13.386 177.04 13.5191 177.648 13.7853C178.264 14.0436 178.797 14.4037 179.249 14.8656C179.709 15.3197 180.067 15.8559 180.324 16.4744C180.589 17.085 180.722 17.7387 180.722 18.4355V30.4602Z" fill="white"/>
<path d="M193.59 23.7315V20.3613C193.59 19.8994 193.5 19.4649 193.321 19.0578C193.149 18.6429 192.912 18.2828 192.608 17.9775C192.304 17.6721 191.946 17.4334 191.533 17.2611C191.128 17.0811 190.695 16.991 190.235 16.991C189.776 16.991 189.339 17.0811 188.926 17.2611C188.521 17.4334 188.166 17.6721 187.863 17.9775C187.559 18.2828 187.317 18.6429 187.138 19.0578C186.967 19.4649 186.881 19.8994 186.881 20.3613V23.7315H193.59ZM196.944 30.4602H193.59V27.09H186.881V30.4602H183.538V20.3613C183.538 19.4297 183.713 18.5568 184.064 17.7426C184.415 16.9206 184.89 16.2043 185.49 15.5937C186.098 14.983 186.807 14.5015 187.617 14.1493C188.436 13.797 189.308 13.6208 190.235 13.6208C191.162 13.6208 192.031 13.797 192.842 14.1493C193.66 14.5015 194.373 14.983 194.981 15.5937C195.588 16.2043 196.067 16.9206 196.418 17.7426C196.769 18.5568 196.944 19.4297 196.944 20.3613V30.4602Z" fill="white"/>
<path d="M206.376 30.4602H203.034V16.991H197.996V13.6208H211.402V16.991H206.376V30.4602Z" fill="white"/>
<path d="M216.533 30.4602H213.179V13.6208H216.533V30.4602Z" fill="white"/>
<path d="M236.075 22.1109C236.075 22.9094 235.97 23.6806 235.759 24.4243C235.557 25.1602 235.269 25.853 234.895 26.5028C234.521 27.1447 234.068 27.7319 233.539 28.2642C233.009 28.7966 232.424 29.2545 231.785 29.6382C231.147 30.0139 230.457 30.3036 229.717 30.5071C228.977 30.7185 228.209 30.8242 227.414 30.8242C226.62 30.8242 225.852 30.7185 225.112 30.5071C224.379 30.3036 223.69 30.0139 223.043 29.6382C222.404 29.2545 221.82 28.7966 221.29 28.2642C220.76 27.7319 220.304 27.1447 219.923 26.5028C219.549 25.853 219.256 25.1602 219.046 24.4243C218.844 23.6806 218.742 22.9094 218.742 22.1109C218.742 21.3124 218.844 20.5413 219.046 19.7976C219.256 19.0538 219.549 18.361 219.923 17.7191C220.304 17.0771 220.76 16.49 221.29 15.9576C221.82 15.4253 222.404 14.9712 223.043 14.5955C223.69 14.2197 224.379 13.93 225.112 13.7265C225.852 13.5151 226.62 13.4094 227.414 13.4094C228.209 13.4094 228.977 13.5151 229.717 13.7265C230.457 13.93 231.147 14.2197 231.785 14.5955C232.424 14.9712 233.009 15.4253 233.539 15.9576C234.068 16.49 234.521 17.0771 234.895 17.7191C235.269 18.361 235.557 19.0538 235.759 19.7976C235.97 20.5413 236.075 21.3124 236.075 22.1109ZM232.744 22.1109C232.744 21.3751 232.604 20.6822 232.323 20.0324C232.043 19.3748 231.661 18.8072 231.178 18.3297C230.703 17.8443 230.138 17.4607 229.483 17.1789C228.836 16.8971 228.147 16.7562 227.414 16.7562C226.674 16.7562 225.981 16.8971 225.334 17.1789C224.687 17.4607 224.122 17.8443 223.639 18.3297C223.156 18.8072 222.774 19.3748 222.494 20.0324C222.213 20.6822 222.073 21.3751 222.073 22.1109C222.073 22.8468 222.213 23.5396 222.494 24.1894C222.774 24.8314 223.156 25.395 223.639 25.8804C224.122 26.3658 224.687 26.7494 225.334 27.0312C225.981 27.3131 226.674 27.454 227.414 27.454C228.147 27.454 228.836 27.3131 229.483 27.0312C230.138 26.7494 230.703 26.3658 231.178 25.8804C231.661 25.395 232.043 24.8314 232.323 24.1894C232.604 23.5396 232.744 22.8468 232.744 22.1109Z" fill="white"/>
<path d="M251.69 30.4602H248.101L241.638 19.3749V30.4602H238.284V13.6208H241.872L248.335 24.7179V13.6208H251.69V30.4602Z" fill="white"/>
<defs>
<linearGradient id="paint0_linear_21_611" x1="-9.47863" y1="5.02487" x2="23.8375" y2="53.9803" gradientUnits="userSpaceOnUse">
<stop stop-color="#00F0FF"/>
<stop offset="1" stop-color="#0038FF"/>
</linearGradient>
<linearGradient id="paint1_linear_21_611" x1="-4.84601" y1="12.1455" x2="3.21466" y2="40.6883" gradientUnits="userSpaceOnUse">
<stop stop-color="#00F0FF"/>
<stop offset="1" stop-color="#0038FF"/>
</linearGradient>
</defs>
</svg>
