<svg width="220" height="39" viewBox="0 0 220 39" fill="none" xmlns="http://www.w3.org/2000/svg">
<path fill-rule="evenodd" clip-rule="evenodd" d="M8.77891 37.1811C12.9694 38.3504 19.4661 31.257 23.2897 21.3374C27.1133 11.4178 26.8158 2.42836 22.6254 1.25894C19.2988 0.330605 14.5188 4.6094 10.7766 11.3755C14.0108 5.73644 17.9886 2.2177 20.7567 2.99017C24.3724 3.99919 24.5549 11.948 21.1643 20.7443C17.7738 29.5406 12.094 35.8534 8.47825 34.8444C5.7101 34.0719 4.95422 29.2318 6.27338 23.0581C4.57905 30.3961 5.45225 36.2528 8.77891 37.1811Z" fill="url(#paint0_linear_310_1742)"/>
<path fill-rule="evenodd" clip-rule="evenodd" d="M19.0551 11.96H6.26963V15.1511H11.1137V27.7378L14.3281 21.3515V15.1511H17.4489L19.0551 11.96ZM1.33569 27.9045H4.56131V11.96H1.33569V27.9045Z" fill="url(#paint1_linear_310_1742)"/>
<path d="M29.996 21.7337C31.0849 21.7337 31.9677 20.893 31.9677 19.856C31.9677 18.819 31.0849 17.9783 29.996 17.9783C28.9071 17.9783 28.0244 18.819 28.0244 19.856C28.0244 20.893 28.9071 21.7337 29.996 21.7337Z" fill="#17293A"/>
<path d="M41.0749 26.5921H38.1567V14.8334H33.7588V11.8911H45.4624V14.8334H41.0749V26.5921Z" fill="#17293A"/>
<path d="M49.9418 14.8334V20.7179H52.8701C53.2716 20.7179 53.649 20.6427 54.0027 20.4923C54.3564 20.3351 54.666 20.1233 54.9313 19.8567C55.1967 19.5902 55.4042 19.2792 55.5537 18.9238C55.7101 18.5616 55.7884 18.1788 55.7884 17.7756C55.7884 17.3724 55.7101 16.9931 55.5537 16.6377C55.4042 16.2754 55.1967 15.9611 54.9313 15.6945C54.666 15.4279 54.3564 15.2195 54.0027 15.0691C53.649 14.9119 53.2716 14.8334 52.8701 14.8334H49.9418ZM49.9418 26.5921H47.0134V11.8911H52.8701C53.4075 11.8911 53.9245 11.9629 54.4212 12.1064C54.9176 12.2431 55.3803 12.4413 55.8087 12.701C56.2442 12.9539 56.6388 13.2614 56.9925 13.6237C57.3528 13.9791 57.6591 14.3754 57.9107 14.8128C58.1693 15.2503 58.3666 15.7184 58.5024 16.2174C58.6454 16.7163 58.7167 17.2357 58.7167 17.7756C58.7167 18.2814 58.6522 18.7734 58.523 19.2519C58.4006 19.7303 58.2203 20.1848 57.9821 20.6154C57.7507 21.0459 57.4651 21.4423 57.1251 21.8046C56.7851 22.1668 56.4039 22.4812 55.9824 22.7477L57.6045 26.5921H54.4925L53.217 23.6294L49.9418 23.6499V26.5921Z" fill="#17293A"/>
<path d="M69.2571 20.7179V17.7756C69.2571 17.3724 69.1789 16.9931 69.0225 16.6377C68.8729 16.2754 68.6655 15.9611 68.4001 15.6945C68.1347 15.4279 67.8219 15.2195 67.4613 15.0691C67.1075 14.9119 66.7302 14.8334 66.3287 14.8334C65.9276 14.8334 65.5464 14.9119 65.1861 15.0691C64.8323 15.2195 64.5228 15.4279 64.2574 15.6945C63.992 15.9611 63.7813 16.2754 63.6249 16.6377C63.475 16.9931 63.4004 17.3724 63.4004 17.7756V20.7179H69.2571ZM72.1855 26.5921H69.2571V23.6499H63.4004V26.5921H60.4822V17.7756C60.4822 16.9623 60.6353 16.2002 60.9413 15.4895C61.2473 14.7719 61.6622 14.1465 62.1861 13.6134C62.7168 13.0803 63.3356 12.66 64.0431 12.3524C64.7574 12.0449 65.5192 11.8911 66.3287 11.8911C67.1383 11.8911 67.8968 12.0449 68.6043 12.3524C69.3183 12.66 69.9407 13.0803 70.4714 13.6134C71.0019 14.1465 71.4204 14.7719 71.7264 15.4895C72.0326 16.2002 72.1855 16.9623 72.1855 17.7756V26.5921Z" fill="#17293A"/>
<path d="M86.4296 26.5921H83.2974L77.6547 16.9145V26.5921H74.7263V11.8911H77.8589L83.5012 21.579V11.8911H86.4296V26.5921Z" fill="#17293A"/>
<path d="M88.2969 16.2994C88.2969 15.6911 88.4124 15.1204 88.6437 14.5873C88.8751 14.0542 89.1879 13.5895 89.5825 13.1931C89.9837 12.7898 90.4497 12.472 90.9805 12.2397C91.5109 12.0073 92.079 11.8911 92.6843 11.8911H99.3984V14.8334H92.6843C92.4802 14.8334 92.2897 14.8709 92.113 14.9461C91.936 15.0213 91.7796 15.1272 91.6434 15.2639C91.5142 15.3938 91.4124 15.5476 91.3375 15.7253C91.2625 15.903 91.2252 16.0943 91.2252 16.2994C91.2252 16.5044 91.2625 16.6992 91.3375 16.8837C91.4124 17.0614 91.5142 17.2186 91.6434 17.3553C91.7796 17.4851 91.936 17.5877 92.113 17.6628C92.2897 17.738 92.4802 17.7756 92.6843 17.7756H95.6127C96.2181 17.7756 96.7861 17.8918 97.3169 18.1242C97.8542 18.3497 98.3202 18.6641 98.7145 19.0674C99.116 19.4637 99.4288 19.9319 99.6533 20.4718C99.8846 21.0049 100 21.5756 100 22.1839C100 22.7922 99.8846 23.3628 99.6533 23.8959C99.4288 24.429 99.116 24.8972 98.7145 25.3004C98.3202 25.6968 97.8542 26.0112 97.3169 26.2436C96.7861 26.4759 96.2181 26.5921 95.6127 26.5921H89.113V23.6499H95.6127C95.8169 23.6499 96.0073 23.6123 96.184 23.5371C96.3611 23.4619 96.5142 23.3594 96.6434 23.2296C96.7793 23.0929 96.8849 22.9357 96.9596 22.758C97.0345 22.5803 97.0718 22.3889 97.0718 22.1839C97.0718 21.9788 97.0345 21.7875 96.9596 21.6098C96.8849 21.4321 96.7793 21.2783 96.6434 21.1485C96.5142 21.0118 96.3611 20.9058 96.184 20.8306C96.0073 20.7555 95.8169 20.7179 95.6127 20.7179H92.6843C92.079 20.7179 91.5109 20.6017 90.9805 20.3693C90.4497 20.1369 89.9837 19.8225 89.5825 19.4262C89.1879 19.0229 88.8751 18.5548 88.6437 18.0216C88.4124 17.4817 88.2969 16.9076 88.2969 16.2994Z" fill="#17293A"/>
<path d="M104.857 26.5921H101.929V11.8911H112.173V14.8334H104.857V17.7756H109.245V20.7179H104.857V26.5921Z" fill="#17293A"/>
<path d="M127.693 19.3031C127.693 20.0002 127.601 20.6734 127.417 21.3227C127.24 21.9651 126.989 22.57 126.662 23.1373C126.336 23.6977 125.941 24.2103 125.479 24.675C125.016 25.1398 124.506 25.5396 123.948 25.8745C123.39 26.2025 122.788 26.4554 122.142 26.6331C121.496 26.8176 120.826 26.9099 120.132 26.9099C119.438 26.9099 118.768 26.8176 118.122 26.6331C117.482 26.4554 116.88 26.2025 116.316 25.8745C115.758 25.5396 115.248 25.1398 114.785 24.675C114.323 24.2103 113.925 23.6977 113.592 23.1373C113.265 22.57 113.01 21.9651 112.826 21.3227C112.649 20.6734 112.561 20.0002 112.561 19.3031C112.561 18.606 112.649 17.9328 112.826 17.2835C113.01 16.6342 113.265 16.0294 113.592 15.4689C113.925 14.9085 114.323 14.3959 114.785 13.9312C115.248 13.4664 115.758 13.07 116.316 12.742C116.88 12.4139 117.482 12.161 118.122 11.9833C118.768 11.7988 119.438 11.7065 120.132 11.7065C120.826 11.7065 121.496 11.7988 122.142 11.9833C122.788 12.161 123.39 12.4139 123.948 12.742C124.506 13.07 125.016 13.4664 125.479 13.9312C125.941 14.3959 126.336 14.9085 126.662 15.4689C126.989 16.0294 127.24 16.6342 127.417 17.2835C127.601 17.9328 127.693 18.606 127.693 19.3031ZM124.785 19.3031C124.785 18.6607 124.662 18.0558 124.418 17.4885C124.172 16.9144 123.839 16.4189 123.418 16.002C123.003 15.5783 122.509 15.2434 121.938 14.9973C121.373 14.7513 120.771 14.6283 120.132 14.6283C119.486 14.6283 118.88 14.7513 118.316 14.9973C117.751 15.2434 117.258 15.5783 116.836 16.002C116.415 16.4189 116.081 16.9144 115.836 17.4885C115.591 18.0558 115.469 18.6607 115.469 19.3031C115.469 19.9455 115.591 20.5504 115.836 21.1176C116.081 21.6781 116.415 22.1702 116.836 22.5939C117.258 23.0176 117.751 23.3525 118.316 23.5986C118.88 23.8446 119.486 23.9676 120.132 23.9676C120.771 23.9676 121.373 23.8446 121.938 23.5986C122.509 23.3525 123.003 23.0176 123.418 22.5939C123.839 22.1702 124.172 21.6781 124.418 21.1176C124.662 20.5504 124.785 19.9455 124.785 19.3031Z" fill="#17293A"/>
<path d="M132.55 14.8334V20.7179H135.478C135.88 20.7179 136.257 20.6427 136.611 20.4923C136.965 20.3351 137.274 20.1233 137.539 19.8567C137.805 19.5902 138.012 19.2792 138.162 18.9238C138.318 18.5616 138.397 18.1788 138.397 17.7756C138.397 17.3724 138.318 16.9931 138.162 16.6377C138.012 16.2754 137.805 15.9611 137.539 15.6945C137.274 15.4279 136.965 15.2195 136.611 15.0691C136.257 14.9119 135.88 14.8334 135.478 14.8334H132.55ZM132.55 26.5921H129.622V11.8911H135.478C136.016 11.8911 136.533 11.9629 137.029 12.1064C137.526 12.2431 137.988 12.4413 138.417 12.701C138.852 12.9539 139.247 13.2614 139.601 13.6237C139.961 13.9791 140.267 14.3754 140.519 14.8128C140.777 15.2503 140.975 15.7184 141.111 16.2174C141.254 16.7163 141.325 17.2357 141.325 17.7756C141.325 18.2814 141.26 18.7734 141.131 19.2519C141.009 19.7303 140.828 20.1848 140.59 20.6154C140.359 21.0459 140.073 21.4423 139.733 21.8046C139.393 22.1668 139.012 22.4812 138.591 22.7477L140.213 26.5921H137.101L135.825 23.6294L132.55 23.6499V26.5921Z" fill="#17293A"/>
<path d="M157.773 26.5921H154.855V16.0943C154.855 15.8893 154.814 15.6979 154.732 15.5202C154.658 15.3425 154.552 15.1887 154.416 15.0589C154.287 14.9222 154.134 14.8162 153.957 14.7411C153.78 14.6659 153.59 14.6283 153.385 14.6283C153.182 14.6283 152.991 14.6659 152.814 14.7411C152.637 14.8162 152.481 14.9222 152.345 15.0589C152.216 15.1887 152.113 15.3425 152.039 15.5202C151.964 15.6979 151.926 15.8893 151.926 16.0943V26.5921H148.998V16.0943C148.998 15.8893 148.961 15.6979 148.886 15.5202C148.811 15.3425 148.705 15.1887 148.569 15.0589C148.44 14.9222 148.287 14.8162 148.11 14.7411C147.933 14.6659 147.743 14.6283 147.539 14.6283C147.335 14.6283 147.144 14.6659 146.967 14.7411C146.79 14.8162 146.634 14.9222 146.498 15.0589C146.369 15.1887 146.267 15.3425 146.192 15.5202C146.117 15.6979 146.08 15.8893 146.08 16.0943V26.5921H143.151V16.0943C143.151 15.486 143.264 14.9153 143.488 14.3822C143.719 13.8423 144.032 13.3742 144.427 12.9778C144.828 12.5745 145.294 12.2601 145.825 12.0346C146.362 11.8022 146.933 11.686 147.539 11.686C148.083 11.686 148.607 11.7851 149.11 11.9833C149.613 12.1747 150.066 12.4549 150.467 12.824C150.869 12.4549 151.318 12.1747 151.814 11.9833C152.318 11.7851 152.841 11.686 153.385 11.686C153.991 11.686 154.559 11.8022 155.09 12.0346C155.627 12.2601 156.093 12.5745 156.487 12.9778C156.889 13.3742 157.202 13.8423 157.426 14.3822C157.657 14.9153 157.773 15.486 157.773 16.0943V26.5921Z" fill="#17293A"/>
<path d="M169.007 20.7179V17.7756C169.007 17.3724 168.929 16.9931 168.772 16.6377C168.622 16.2754 168.415 15.9611 168.15 15.6945C167.885 15.4279 167.572 15.2195 167.211 15.0691C166.857 14.9119 166.48 14.8334 166.079 14.8334C165.677 14.8334 165.296 14.9119 164.936 15.0691C164.582 15.2195 164.272 15.4279 164.007 15.6945C163.742 15.9611 163.531 16.2754 163.374 16.6377C163.225 16.9931 163.15 17.3724 163.15 17.7756V20.7179H169.007ZM171.935 26.5921H169.007V23.6499H163.15V26.5921H160.232V17.7756C160.232 16.9623 160.385 16.2002 160.691 15.4895C160.997 14.7719 161.412 14.1465 161.936 13.6134C162.466 13.0803 163.085 12.66 163.793 12.3524C164.507 12.0449 165.269 11.8911 166.079 11.8911C166.888 11.8911 167.646 12.0449 168.354 12.3524C169.068 12.66 169.691 13.0803 170.221 13.6134C170.752 14.1465 171.17 14.7719 171.476 15.4895C171.782 16.2002 171.935 16.9623 171.935 17.7756V26.5921Z" fill="#17293A"/>
<path d="M180.17 26.5921H177.252V14.8334H172.854V11.8911H184.557V14.8334H180.17V26.5921Z" fill="#17293A"/>
<path d="M189.037 26.5921H186.108V11.8911H189.037V26.5921Z" fill="#17293A"/>
<path d="M206.097 19.3031C206.097 20.0002 206.005 20.6734 205.822 21.3227C205.645 21.9651 205.393 22.57 205.067 23.1373C204.74 23.6977 204.345 24.2103 203.883 24.675C203.42 25.1398 202.91 25.5396 202.352 25.8745C201.795 26.2025 201.193 26.4554 200.546 26.6331C199.9 26.8176 199.23 26.9099 198.536 26.9099C197.842 26.9099 197.172 26.8176 196.526 26.6331C195.887 26.4554 195.285 26.2025 194.72 25.8745C194.162 25.5396 193.652 25.1398 193.19 24.675C192.727 24.2103 192.329 23.6977 191.996 23.1373C191.669 22.57 191.414 21.9651 191.23 21.3227C191.054 20.6734 190.965 20.0002 190.965 19.3031C190.965 18.606 191.054 17.9328 191.23 17.2835C191.414 16.6342 191.669 16.0294 191.996 15.4689C192.329 14.9085 192.727 14.3959 193.19 13.9312C193.652 13.4664 194.162 13.07 194.72 12.742C195.285 12.4139 195.887 12.161 196.526 11.9833C197.172 11.7988 197.842 11.7065 198.536 11.7065C199.23 11.7065 199.9 11.7988 200.546 11.9833C201.193 12.161 201.795 12.4139 202.352 12.742C202.91 13.07 203.42 13.4664 203.883 13.9312C204.345 14.3959 204.74 14.9085 205.067 15.4689C205.393 16.0294 205.645 16.6342 205.822 17.2835C206.005 17.9328 206.097 18.606 206.097 19.3031ZM203.189 19.3031C203.189 18.6607 203.067 18.0558 202.822 17.4885C202.577 16.9144 202.244 16.4189 201.822 16.002C201.407 15.5783 200.914 15.2434 200.342 14.9973C199.778 14.7513 199.176 14.6283 198.536 14.6283C197.89 14.6283 197.285 14.7513 196.72 14.9973C196.156 15.2434 195.662 15.5783 195.241 16.002C194.819 16.4189 194.485 16.9144 194.241 17.4885C193.996 18.0558 193.873 18.6607 193.873 19.3031C193.873 19.9455 193.996 20.5504 194.241 21.1176C194.485 21.6781 194.819 22.1702 195.241 22.5939C195.662 23.0176 196.156 23.3525 196.72 23.5986C197.285 23.8446 197.89 23.9676 198.536 23.9676C199.176 23.9676 199.778 23.8446 200.342 23.5986C200.914 23.3525 201.407 23.0176 201.822 22.5939C202.244 22.1702 202.577 21.6781 202.822 21.1176C203.067 20.5504 203.189 19.9455 203.189 19.3031Z" fill="#17293A"/>
<path d="M219.729 26.5921H216.596L210.954 16.9145V26.5921H208.026V11.8911H211.158L216.801 21.579V11.8911H219.729V26.5921Z" fill="#17293A"/>
<defs>
<linearGradient id="paint0_linear_310_1742" x1="-8.27489" y1="4.38677" x2="20.8106" y2="47.1256" gradientUnits="userSpaceOnUse">
<stop stop-color="#00F0FF"/>
<stop offset="1" stop-color="#0038FF"/>
</linearGradient>
<linearGradient id="paint1_linear_310_1742" x1="-4.23069" y1="10.6032" x2="2.8064" y2="35.5215" gradientUnits="userSpaceOnUse">
<stop stop-color="#00F0FF"/>
<stop offset="1" stop-color="#0038FF"/>
</linearGradient>
</defs>
</svg>
