<svg width="60" height="60" viewBox="0 0 60 60" fill="none" xmlns="http://www.w3.org/2000/svg">
<path d="M60 30C60 13.4315 46.5685 0 30 0V0C13.4315 0 -3.8147e-06 13.4315 -3.8147e-06 30V30C-3.8147e-06 46.5685 13.4315 60 30 60V60C46.5685 60 60 46.5685 60 30V30Z" fill="#EFF0F8"/>
<g clip-path="url(#clip0_21_344)">
<path d="M36.6016 32.3359C34.9215 32.3359 33.5547 30.9691 33.5547 29.2891C33.5547 27.609 34.9215 26.2422 36.6016 26.2422C38.2816 26.2422 39.6484 27.609 39.6484 29.2891C39.6484 30.9691 38.2816 32.3359 36.6016 32.3359Z" fill="#A7B5D1"/>
<path d="M42.2383 43H17.7617C17.341 43 17 42.659 17 42.2383V40.7148C17 40.2942 17.341 39.9531 17.7617 39.9531H42.2383C42.659 39.9531 43 40.2942 43 40.7148V42.2383C43 42.659 42.659 43 42.2383 43Z" fill="#A7B5D1"/>
<path d="M39.2264 33.0282C38.4832 33.5516 37.5777 33.8594 36.6016 33.8594C35.6254 33.8594 34.72 33.5516 33.9767 33.0282C33.3104 33.4067 32.7335 33.9247 32.2852 34.5419V36.1445C32.2852 36.9351 31.8815 37.6331 31.2695 38.0435V38.4297H41.9336V37.668C41.9336 35.6816 40.8416 33.9456 39.2264 33.0282Z" fill="#A7B5D1"/>
<path d="M30 27.7656H17.8125C17.3918 27.7656 17.0508 28.1067 17.0508 28.5273V36.1445C17.0508 36.5652 17.3918 36.9062 17.8125 36.9062H21.326L20.8181 38.4297H26.9943L26.4865 36.9062H30C30.4207 36.9062 30.7617 36.5652 30.7617 36.1445V28.5273C30.7617 28.1067 30.4207 27.7656 30 27.7656Z" fill="#A7B5D1"/>
<path d="M34.0625 17H22.8906C21.9106 17 21.1133 17.7973 21.1133 18.7773V22.8398C21.1133 23.8199 21.9106 24.6172 22.8906 24.6172H29.2615L32.1166 26.5205C32.244 26.6055 32.3913 26.6484 32.5391 26.6484C32.6624 26.6484 32.7859 26.6186 32.8985 26.5583C33.1462 26.4258 33.3008 26.1676 33.3008 25.8867V24.6172H34.0625C35.0425 24.6172 35.8398 23.8199 35.8398 22.8398V18.7773C35.8398 17.7973 35.0425 17 34.0625 17V17ZM32.0312 21.5703H24.9219C24.5012 21.5703 24.1602 21.2293 24.1602 20.8086C24.1602 20.3879 24.5012 20.0469 24.9219 20.0469H32.0312C32.4519 20.0469 32.793 20.3879 32.793 20.8086C32.793 21.2293 32.4519 21.5703 32.0312 21.5703Z" fill="#A7B5D1"/>
</g>
<defs>
<clipPath id="clip0_21_344">
<rect width="26" height="26" fill="white" transform="translate(17 17)"/>
</clipPath>
</defs>
</svg>
