<svg width="26" height="26" viewBox="0 0 26 26" fill="none" xmlns="http://www.w3.org/2000/svg">
<path d="M24.9127 20.2328V22.7855C24.9127 23.4892 24.3401 24.0619 23.6364 24.0619H2.36364C1.65994 24.0619 1.08728 23.4892 1.08728 22.7855V20.2328C1.08728 19.5291 1.65994 18.9564 2.36364 18.9564H23.6364C24.3401 18.9564 24.9127 19.5291 24.9127 20.2328Z" fill="#A7B5D1"/>
<path d="M21.7343 9.1772C21.529 7.94111 20.4704 7.04369 19.2165 7.04369H18.1055V5.34187H21.0837C21.3185 5.34187 21.5091 5.15127 21.5091 4.91641V2.36369C21.5091 2.12855 21.3185 1.93823 21.0837 1.93823H13.4255C13.1906 1.93823 13 2.12855 13 2.36369V4.91641C13 5.15127 13.1906 5.34187 13.4255 5.34187H16.4037V7.04369H6.78357C5.52962 7.04369 4.47109 7.94111 4.26573 9.17692L2.91931 17.2546H23.0808L21.7343 9.1772ZM12.1491 14.2764C12.1491 14.5113 11.9585 14.7019 11.7237 14.7019H6.61821C6.38336 14.7019 6.19276 14.5113 6.19276 14.2764V10.0219C6.19276 9.78673 6.38336 9.59641 6.61821 9.59641H11.7237C11.9585 9.59641 12.1491 9.78673 12.1491 10.0219V14.2764ZM16.4037 14.7019H14.7018V13.0001H16.4037V14.7019ZM16.4037 11.2982H14.7018V9.59641H16.4037V11.2982ZM19.8073 14.7019H18.1055V13.0001H19.8073V14.7019ZM19.8073 11.2982H18.1055V9.59641H19.8073V11.2982Z" fill="#A7B5D1"/>
</svg>
