<svg width="26" height="26" viewBox="0 0 26 26" fill="none" xmlns="http://www.w3.org/2000/svg">
<path d="M7.65778 17.3876L7.55622 17.3673L5.82965 17.1032C5.82965 17.022 5.82965 16.961 5.82965 16.8798L5.44372 12.8173C5.36247 11.3954 4.1234 10.2985 2.70153 10.4001C1.27965 10.461 0.203091 11.6798 0.284341 13.1016L0.670279 17.1641C0.731216 18.2204 1.42184 19.0938 2.35622 19.4391C2.57965 19.561 2.84372 19.622 3.10778 19.6016L6.49997 19.7438V22.8313C6.49997 23.3798 6.94684 23.8266 7.49528 23.8266C8.04372 23.8266 8.49059 23.3798 8.49059 22.8313V18.3626C8.49059 17.8751 8.14528 17.4688 7.65778 17.3876Z" fill="#A7B5D1"/>
<path d="M3.0468 9.52659C4.40421 9.52659 5.50461 8.42619 5.50461 7.06877C5.50461 5.71136 4.40421 4.61096 3.0468 4.61096C1.68939 4.61096 0.588989 5.71136 0.588989 7.06877C0.588989 8.42619 1.68939 9.52659 3.0468 9.52659Z" fill="#A7B5D1"/>
<path d="M23.2983 10.3797C21.8765 10.2984 20.6577 11.375 20.5562 12.7969L20.1702 16.8594C20.1702 16.9406 20.1702 17.0219 20.1702 17.0828L18.4437 17.3469L18.3421 17.3672C17.8546 17.4484 17.5093 17.8547 17.5093 18.3422V22.8312C17.5093 23.3797 17.9562 23.8266 18.5046 23.8266C19.053 23.8266 19.4999 23.3797 19.4999 22.8312V19.7437L22.8921 19.6016C23.1765 19.6219 23.4202 19.5609 23.6437 19.4391C24.578 19.0937 25.2686 18.2203 25.3296 17.1641L25.7155 13.1016C25.7968 11.6797 24.7202 10.4609 23.2983 10.3797Z" fill="#A7B5D1"/>
<path d="M22.9531 9.52659C24.3105 9.52659 25.4109 8.42619 25.4109 7.06877C25.4109 5.71136 24.3105 4.61096 22.9531 4.61096C21.5956 4.61096 20.4952 5.71136 20.4952 7.06877C20.4952 8.42619 21.5956 9.52659 22.9531 9.52659Z" fill="#A7B5D1"/>
<path d="M18.5452 15.4172C18.5452 14.8688 18.0983 14.4219 17.5499 14.4219H12.9999H8.4499C7.90146 14.4219 7.45459 14.8688 7.45459 15.4172C7.45459 15.9656 7.90146 16.4125 8.4499 16.4125H9.52646V23.8469H12.9999H16.4733V16.4125H17.5499C18.0983 16.4125 18.5452 15.9656 18.5452 15.4172Z" fill="#A7B5D1"/>
<path fill-rule="evenodd" clip-rule="evenodd" d="M9.34375 2.1532C8.44629 2.1532 7.71875 2.88074 7.71875 3.7782V7.74841C7.71875 8.64588 8.44629 9.37341 9.34375 9.37341H10.4348C10.4694 9.42358 10.5107 9.47146 10.5591 9.51611L12.4492 11.2592C12.7603 11.5461 13.2397 11.5461 13.5508 11.2592L15.4409 9.51611C15.4893 9.47146 15.5306 9.42358 15.5652 9.37341H16.6563C17.5537 9.37341 18.2813 8.64588 18.2813 7.74841V3.7782C18.2813 2.88074 17.5537 2.1532 16.6563 2.1532H9.34375Z" fill="#A7B5D1"/>
</svg>
