<svg width="26" height="26" viewBox="0 0 26 26" fill="none" xmlns="http://www.w3.org/2000/svg">
<g clip-path="url(#clip0_21_268)">
<path d="M1.7446 15.2022L3.6088 15.5298C3.82699 16.3423 4.15039 17.1228 4.5708 17.8516L3.484 19.4116C3.29276 19.6861 3.20366 20.019 3.23216 20.3524C3.26065 20.6857 3.40494 20.9986 3.64 21.2368L4.758 22.3548C4.99646 22.5929 5.31121 22.7393 5.64693 22.7683C5.98265 22.7973 6.31785 22.707 6.5936 22.5134L8.1536 21.4266C8.88233 21.847 9.66287 22.1704 10.4754 22.3886L10.803 24.2528C10.8613 24.5858 11.0355 24.8875 11.2948 25.1045C11.5542 25.3215 11.8819 25.4397 12.22 25.4384H13.78C14.1172 25.4385 14.4437 25.3197 14.702 25.1028C14.9602 24.886 15.1337 24.5849 15.1918 24.2528L15.5194 22.3886C16.332 22.1694 17.1125 21.8451 17.8412 21.424L19.4012 22.5108C19.6761 22.7054 20.0108 22.797 20.3465 22.7694C20.6821 22.7419 20.9974 22.5969 21.2368 22.36L22.3548 21.242C22.5929 21.0035 22.7393 20.6888 22.7683 20.353C22.7973 20.0173 22.7071 19.6821 22.5134 19.4064L21.4266 17.8464C21.8472 17.1177 22.1706 16.3371 22.3886 15.5246L24.2528 15.197C24.5863 15.1392 24.8887 14.9652 25.1062 14.7059C25.3237 14.4465 25.4423 14.1185 25.441 13.78V12.22C25.4412 11.8827 25.3223 11.5563 25.1055 11.298C24.8886 11.0398 24.5876 10.8663 24.2554 10.8082L22.3912 10.4806C22.1731 9.66802 21.8497 8.88748 21.4292 8.15877L22.516 6.59877C22.71 6.32331 22.8007 5.98828 22.7722 5.65257C22.7436 5.31686 22.5977 5.00194 22.36 4.76317L21.2368 3.63997C20.9987 3.40148 20.6841 3.25458 20.3484 3.22509C20.0126 3.19561 19.6773 3.28543 19.4012 3.47877L17.8412 4.56557C17.1126 4.14417 16.3321 3.81989 15.5194 3.60097L15.2022 1.74457C15.1432 1.4111 14.968 1.10931 14.7076 0.892745C14.4473 0.676182 14.1186 0.55885 13.78 0.56157H12.22C11.8828 0.561416 11.5563 0.680232 11.2981 0.897101C11.0398 1.11397 10.8663 1.41499 10.8082 1.74717L10.4806 3.61137C9.66789 3.8302 8.88733 4.15449 8.1588 4.57597L6.5988 3.48917C6.32275 3.29583 5.98738 3.20601 5.65165 3.23549C5.31592 3.26498 5.00133 3.41188 4.7632 3.65037L3.64 4.76317C3.40191 5.00162 3.25549 5.31637 3.22648 5.65209C3.19747 5.98781 3.28774 6.32301 3.4814 6.59877L4.5682 8.15877C4.14784 8.88753 3.82444 9.66806 3.6062 10.4806L1.7446 10.7978C1.41066 10.8562 1.10826 11.0312 0.891171 11.2916C0.674087 11.552 0.556388 11.881 0.559003 12.22V13.78C0.556388 14.119 0.674087 14.4479 0.891171 14.7083C1.10826 14.9687 1.41066 15.1437 1.7446 15.2022ZM8.1536 8.15617C9.11196 7.19861 10.3327 6.54668 11.6615 6.28279C12.9903 6.01891 14.3675 6.15491 15.6191 6.67361C16.8706 7.19232 17.9402 8.07043 18.6928 9.19695C19.4453 10.3235 19.847 11.6478 19.847 13.0026C19.847 14.3573 19.4453 15.6817 18.6928 16.8082C17.9402 17.9347 16.8706 18.8128 15.6191 19.3315C14.3675 19.8502 12.9903 19.9862 11.6615 19.7223C10.3327 19.4585 9.11196 18.8065 8.1536 17.849C7.51182 17.2155 7.00225 16.4609 6.65444 15.629C6.30664 14.797 6.12754 13.9043 6.12754 13.0026C6.12754 12.1008 6.30664 11.2081 6.65444 10.3761C7.00225 9.54419 7.51182 8.7896 8.1536 8.15617Z" fill="#A7B5D1"/>
<path d="M12.5864 11.0837L11.146 8.47071C12.0392 8.10613 13.0201 8.01339 13.9657 8.20412C14.9114 8.39485 15.7797 8.86056 16.4617 9.54284C17.1437 10.2251 17.609 11.0936 17.7994 12.0393C17.9897 12.985 17.8966 13.9659 17.5316 14.8589L14.9316 13.4185C15.0042 13.0963 14.994 12.761 14.9021 12.4437C14.8102 12.1265 14.6396 11.8377 14.406 11.6041C14.1725 11.3706 13.8836 11.1999 13.5664 11.108C13.2492 11.0161 12.9139 11.006 12.5916 11.0785L12.5864 11.0837ZM12.9998 12.3837C13.1242 12.3831 13.246 12.4195 13.3496 12.4883C13.4532 12.5571 13.534 12.6552 13.5816 12.7701C13.6293 12.885 13.6417 13.0114 13.6173 13.1334C13.5929 13.2554 13.5327 13.3673 13.4444 13.4549C13.3249 13.5696 13.1656 13.6337 12.9998 13.6337C12.8341 13.6337 12.6748 13.5696 12.5552 13.4549C12.4656 13.3672 12.4042 13.2547 12.3789 13.1318C12.3536 13.009 12.3657 12.8814 12.4134 12.7654C12.4612 12.6494 12.5426 12.5504 12.6471 12.481C12.7516 12.4116 12.8744 12.375 12.9998 12.3759V12.3837ZM9.53664 16.4657C8.85527 15.7828 8.39046 14.9141 8.20038 13.9684C8.0103 13.0226 8.10341 12.0418 8.46804 11.1487L11.068 12.5891C10.997 12.9111 11.0081 13.2459 11.1006 13.5624C11.193 13.879 11.3637 14.1671 11.5968 14.4003C11.83 14.6335 12.1182 14.8042 12.4347 14.8966C12.7513 14.989 13.086 15.0002 13.408 14.9291L14.8484 17.5291C13.9564 17.8929 12.9771 17.9861 12.0325 17.797C11.0879 17.6079 10.2198 17.1449 9.53664 16.4657Z" fill="#A7B5D1"/>
</g>
<defs>
<clipPath id="clip0_21_268">
<rect width="26" height="26" fill="white"/>
</clipPath>
</defs>
</svg>
