<svg width="26" height="26" viewBox="0 0 26 26" fill="none" xmlns="http://www.w3.org/2000/svg">
<path d="M22.9531 9.44531V2.08203C22.9531 1.66136 22.6121 1.32031 22.1914 1.32031H0.761719C0.341047 1.32031 0 1.66136 0 2.08203V14.0156H16.8594V11.7305C16.8594 10.4704 17.8844 9.44531 19.1445 9.44531H22.9531Z" fill="#A7B5D1"/>
<path d="M0 19.3477C0 19.7683 0.341047 20.1094 0.761719 20.1094H16.8594V15.5391H0V19.3477Z" fill="#A7B5D1"/>
<path d="M15.2852 23.1562H14.5234V21.6328H8.42969V23.1562H7.66797C7.2473 23.1562 6.90625 23.4973 6.90625 23.918C6.90625 24.3386 7.2473 24.6797 7.66797 24.6797H15.2852C15.7058 24.6797 16.0469 24.3386 16.0469 23.918C16.0469 23.4973 15.7058 23.1562 15.2852 23.1562Z" fill="#A7B5D1"/>
<path d="M25.2383 10.9688H19.1445C18.7239 10.9688 18.3828 11.3098 18.3828 11.7305V23.918C18.3828 24.3386 18.7239 24.6797 19.1445 24.6797H25.2383C25.659 24.6797 26 24.3386 26 23.918V11.7305C26 11.3098 25.659 10.9688 25.2383 10.9688ZM22.1914 22.3945C21.7707 22.3945 21.4297 22.0535 21.4297 21.6328C21.4297 21.2121 21.7707 20.8711 22.1914 20.8711C22.6121 20.8711 22.9531 21.2121 22.9531 21.6328C22.9531 22.0535 22.6121 22.3945 22.1914 22.3945Z" fill="#A7B5D1"/>
</svg>
